<?xml version="1.0" encoding="UTF-8"?>
<svg xmlns="http://www.w3.org/2000/svg" xmlns:xlink="http://www.w3.org/1999/xlink" width="2100" height="2101" viewBox="0 0 2100 2101">
<path fill-rule="evenodd" fill="rgb(0%, 0%, 0%)" fill-opacity="1" d="M 1169.058594 1208.296875 L 1469.050781 1208.296875 L 1469.050781 1429.8125 L 1169.058594 1429.8125 Z M 1352.378906 1310.503906 L 1323.988281 1294.117188 L 1295.609375 1277.726562 C 1292.46875 1275.914062 1288.871094 1275.914062 1285.730469 1277.726562 C 1282.589844 1279.539062 1280.800781 1282.652344 1280.800781 1286.277344 L 1280.800781 1351.832031 C 1280.800781 1355.457031 1282.589844 1358.570312 1285.730469 1360.382812 C 1288.871094 1362.195312 1292.46875 1362.195312 1295.609375 1360.382812 L 1323.988281 1343.996094 L 1352.378906 1327.605469 C 1355.519531 1325.792969 1357.308594 1322.679688 1357.308594 1319.054688 C 1357.308594 1315.429688 1355.519531 1312.316406 1352.378906 1310.503906 Z M 1175.871094 1218.394531 L 1201.160156 1218.394531 L 1201.160156 1243.6875 L 1175.871094 1243.6875 Z M 1228.078125 1218.394531 L 1253.378906 1218.394531 L 1253.378906 1243.6875 L 1228.078125 1243.6875 Z M 1280.300781 1218.394531 L 1305.589844 1218.394531 L 1305.589844 1243.6875 L 1280.300781 1243.6875 Z M 1332.519531 1218.394531 L 1357.808594 1218.394531 L 1357.808594 1243.6875 L 1332.519531 1243.6875 Z M 1384.730469 1218.394531 L 1410.03125 1218.394531 L 1410.03125 1243.6875 L 1384.730469 1243.6875 Z M 1436.949219 1218.394531 L 1462.238281 1218.394531 L 1462.238281 1243.6875 L 1436.949219 1243.6875 Z M 1175.871094 1394.425781 L 1201.160156 1394.425781 L 1201.160156 1419.71875 L 1175.871094 1419.71875 Z M 1228.078125 1394.425781 L 1253.378906 1394.425781 L 1253.378906 1419.71875 L 1228.078125 1419.71875 Z M 1280.300781 1394.425781 L 1305.589844 1394.425781 L 1305.589844 1419.71875 L 1280.300781 1419.71875 Z M 1332.519531 1394.425781 L 1357.808594 1394.425781 L 1357.808594 1419.71875 L 1332.519531 1419.71875 Z M 1384.730469 1394.425781 L 1410.03125 1394.425781 L 1410.03125 1419.71875 L 1384.730469 1419.71875 Z M 1436.949219 1394.425781 L 1462.238281 1394.425781 L 1462.238281 1419.71875 L 1436.949219 1419.71875 L 1436.949219 1394.425781 "/>
<path fill-rule="evenodd" fill="rgb(0%, 0%, 0%)" fill-opacity="1" d="M 242.835938 92.828125 C 159.992188 92.828125 92.832031 159.988281 92.832031 242.828125 C 92.832031 325.679688 159.992188 392.828125 242.835938 392.828125 C 325.675781 392.828125 392.835938 325.679688 392.835938 242.828125 C 392.835938 159.988281 325.675781 92.828125 242.835938 92.828125 Z M 324.128906 226.601562 L 270.222656 195.46875 L 216.316406 164.351562 C 210.351562 160.910156 203.527344 160.910156 197.566406 164.351562 C 191.605469 167.789062 188.191406 173.699219 188.191406 180.589844 L 188.191406 305.078125 C 188.191406 311.96875 191.605469 317.878906 197.566406 321.320312 C 203.527344 324.761719 210.351562 324.761719 216.316406 321.320312 L 270.222656 290.191406 L 324.128906 259.070312 C 330.089844 255.628906 333.503906 249.71875 333.503906 242.828125 C 333.503906 235.949219 330.09375 230.039062 324.128906 226.601562 "/>
<path fill-rule="evenodd" fill="rgb(0%, 0%, 0%)" fill-opacity="1" d="M 780.273438 93.5 C 697.800781 93.5 630.945312 160.359375 630.945312 242.828125 C 630.945312 325.308594 697.800781 392.171875 780.273438 392.171875 C 862.746094 392.171875 929.605469 325.308594 929.605469 242.828125 C 929.605469 160.359375 862.746094 93.5 780.273438 93.5 Z M 780.273438 116.140625 C 762.988281 116.140625 748.972656 130.160156 748.972656 147.441406 C 748.972656 164.730469 762.988281 178.738281 780.273438 178.738281 C 797.5625 178.738281 811.574219 164.730469 811.574219 147.441406 C 811.574219 130.160156 797.5625 116.140625 780.273438 116.140625 Z M 670.554688 179.488281 C 661.914062 194.460938 667.042969 213.601562 682.015625 222.25 C 696.984375 230.890625 716.128906 225.761719 724.769531 210.789062 C 733.414062 195.820312 728.285156 176.671875 713.3125 168.03125 C 698.34375 159.390625 679.199219 164.519531 670.554688 179.488281 Z M 670.554688 306.179688 C 679.199219 321.148438 698.34375 326.28125 713.3125 317.640625 C 728.285156 308.988281 733.414062 289.851562 724.769531 274.878906 C 716.128906 259.910156 696.984375 254.78125 682.015625 263.421875 C 667.042969 272.070312 661.914062 291.210938 670.554688 306.179688 Z M 780.273438 369.53125 C 797.5625 369.53125 811.574219 355.511719 811.574219 338.230469 C 811.574219 320.941406 797.5625 306.921875 780.273438 306.921875 C 762.988281 306.921875 748.972656 320.941406 748.972656 338.230469 C 748.972656 355.511719 762.988281 369.53125 780.273438 369.53125 Z M 889.992188 306.179688 C 898.636719 291.210938 893.507812 272.070312 878.535156 263.421875 C 863.566406 254.78125 844.421875 259.910156 835.777344 274.878906 C 827.136719 289.851562 832.265625 308.988281 847.234375 317.640625 C 862.207031 326.28125 881.351562 321.148438 889.992188 306.179688 Z M 889.992188 179.488281 C 881.351562 164.519531 862.207031 159.390625 847.234375 168.03125 C 832.265625 176.671875 827.136719 195.820312 835.777344 210.789062 C 844.421875 225.761719 863.566406 230.890625 878.535156 222.25 C 893.507812 213.601562 898.636719 194.460938 889.992188 179.488281 "/>
<path fill-rule="evenodd" fill="rgb(0%, 0%, 0%)" fill-opacity="1" d="M 836.769531 392.171875 L 930.945312 392.171875 L 930.945312 360.351562 L 888.300781 360.351562 C 873.445312 374.011719 855.996094 384.890625 836.769531 392.171875 "/>
<path fill-rule="evenodd" fill="rgb(0%, 0%, 0%)" fill-opacity="1" d="M 1412.820312 244.089844 L 1442.328125 227.050781 C 1447.988281 223.78125 1454.480469 223.78125 1460.148438 227.050781 C 1465.808594 230.320312 1469.058594 235.941406 1469.058594 242.480469 L 1469.058594 360.800781 C 1469.058594 367.339844 1465.808594 372.960938 1460.148438 376.230469 C 1454.480469 379.5 1447.988281 379.5 1442.328125 376.230469 L 1412.820312 359.191406 L 1412.820312 244.089844 "/>
<path fill-rule="evenodd" fill="rgb(0%, 0%, 0%)" fill-opacity="1" d="M 1198.988281 219.671875 L 1370.070312 219.671875 C 1386.53125 219.671875 1400 233.140625 1400 249.609375 L 1400 353.671875 C 1400 370.140625 1386.53125 383.609375 1370.070312 383.609375 L 1198.988281 383.609375 C 1182.53125 383.609375 1169.058594 370.140625 1169.058594 353.671875 L 1169.058594 249.609375 C 1169.058594 233.140625 1182.53125 219.671875 1198.988281 219.671875 "/>
<path fill-rule="evenodd" fill="rgb(0%, 0%, 0%)" fill-opacity="1" d="M 1224.980469 125.578125 C 1200.960938 125.578125 1181.5 145.050781 1181.5 169.058594 C 1181.5 193.070312 1200.960938 212.539062 1224.980469 212.539062 C 1248.988281 212.539062 1268.460938 193.070312 1268.460938 169.058594 C 1268.460938 145.050781 1248.988281 125.578125 1224.980469 125.578125 Z M 1224.980469 152.660156 C 1215.921875 152.660156 1208.578125 160 1208.578125 169.058594 C 1208.578125 178.121094 1215.921875 185.460938 1224.980469 185.460938 C 1234.039062 185.460938 1241.378906 178.121094 1241.378906 169.058594 C 1241.378906 160 1234.039062 152.660156 1224.980469 152.660156 "/>
<path fill-rule="evenodd" fill="rgb(0%, 0%, 0%)" fill-opacity="1" d="M 1332.320312 102.058594 C 1301.808594 102.058594 1277.078125 126.789062 1277.078125 157.300781 C 1277.078125 187.808594 1301.808594 212.539062 1332.320312 212.539062 C 1362.828125 212.539062 1387.558594 187.808594 1387.558594 157.300781 C 1387.558594 126.789062 1362.828125 102.058594 1332.320312 102.058594 Z M 1332.320312 140.898438 C 1323.261719 140.898438 1315.921875 148.238281 1315.921875 157.300781 C 1315.921875 166.359375 1323.261719 173.699219 1332.320312 173.699219 C 1341.378906 173.699219 1348.71875 166.359375 1348.71875 157.300781 C 1348.71875 148.238281 1341.378906 140.898438 1332.320312 140.898438 "/>
<path fill-rule="evenodd" fill="rgb(0%, 0%, 0%)" fill-opacity="1" d="M 131.886719 786.078125 L 380.90625 786.078125 L 380.90625 913.039062 C 380.90625 922.890625 372.851562 930.941406 363.003906 930.941406 L 131.886719 930.941406 C 122.039062 930.941406 113.980469 922.890625 113.980469 913.039062 L 113.980469 786.078125 Z M 287.035156 848.351562 L 253.308594 828.878906 L 219.585938 809.410156 C 215.855469 807.261719 211.585938 807.261719 207.855469 809.410156 C 204.125 811.558594 201.992188 815.261719 201.992188 819.570312 L 201.992188 897.449219 C 201.992188 901.761719 204.125 905.460938 207.855469 907.609375 C 211.585938 909.761719 215.855469 909.761719 219.585938 907.609375 L 253.308594 888.140625 L 287.035156 868.671875 C 290.765625 866.511719 292.898438 862.820312 292.898438 858.511719 C 292.898438 854.199219 290.765625 850.511719 287.035156 848.351562 "/>
<path fill-rule="evenodd" fill="rgb(0%, 0%, 0%)" fill-opacity="1" d="M 113.980469 745.980469 L 150.078125 745.980469 L 137.496094 777.609375 L 113.980469 777.609375 L 113.980469 745.980469 "/>
<path fill-rule="evenodd" fill="rgb(0%, 0%, 0%)" fill-opacity="1" d="M 150.078125 777.609375 L 162.664062 745.980469 L 198.761719 745.980469 L 186.179688 777.609375 L 150.078125 777.609375 "/>
<path fill-rule="evenodd" fill="rgb(0%, 0%, 0%)" fill-opacity="1" d="M 198.761719 777.609375 L 211.347656 745.980469 L 247.445312 745.980469 L 234.863281 777.609375 L 198.761719 777.609375 "/>
<path fill-rule="evenodd" fill="rgb(0%, 0%, 0%)" fill-opacity="1" d="M 247.445312 777.609375 L 260.027344 745.980469 L 296.128906 745.980469 L 283.542969 777.609375 L 247.445312 777.609375 "/>
<path fill-rule="evenodd" fill="rgb(0%, 0%, 0%)" fill-opacity="1" d="M 296.128906 777.609375 L 308.710938 745.980469 L 344.808594 745.980469 L 332.226562 777.609375 L 296.128906 777.609375 "/>
<path fill-rule="evenodd" fill="rgb(0%, 0%, 0%)" fill-opacity="1" d="M 344.808594 777.609375 L 357.390625 745.980469 L 380.90625 745.980469 L 380.90625 777.609375 L 344.808594 777.609375 "/>
<path fill-rule="evenodd" fill="rgb(0%, 0%, 0%)" fill-opacity="1" d="M 113.980469 739.03125 L 148.511719 728.511719 L 127.253906 701.921875 L 104.761719 708.78125 L 113.980469 739.03125 "/>
<path fill-rule="evenodd" fill="rgb(0%, 0%, 0%)" fill-opacity="1" d="M 139.289062 698.25 L 160.546875 724.839844 L 195.078125 714.308594 L 173.820312 687.730469 L 139.289062 698.25 "/>
<path fill-rule="evenodd" fill="rgb(0%, 0%, 0%)" fill-opacity="1" d="M 185.855469 684.058594 L 207.113281 710.640625 L 241.644531 700.109375 L 220.386719 673.53125 L 185.855469 684.058594 "/>
<path fill-rule="evenodd" fill="rgb(0%, 0%, 0%)" fill-opacity="1" d="M 232.421875 669.859375 L 253.679688 696.441406 L 288.210938 685.921875 L 266.953125 659.339844 L 232.421875 669.859375 "/>
<path fill-rule="evenodd" fill="rgb(0%, 0%, 0%)" fill-opacity="1" d="M 278.988281 655.671875 L 300.246094 682.25 L 334.777344 671.71875 L 313.519531 645.140625 L 278.988281 655.671875 "/>
<path fill-rule="evenodd" fill="rgb(0%, 0%, 0%)" fill-opacity="1" d="M 325.554688 641.46875 L 346.8125 668.050781 L 369.304688 661.199219 L 360.085938 630.941406 L 325.554688 641.46875 "/>
<path fill-rule="evenodd" fill="rgb(0%, 0%, 0%)" fill-opacity="1" d="M 1717.488281 92.828125 L 1731.601562 92.828125 L 1731.601562 117.890625 L 1760.839844 117.890625 L 1760.839844 92.828125 L 1953.488281 92.828125 L 1953.488281 117.890625 L 1982.730469 117.890625 L 1982.730469 92.828125 L 1996.839844 92.828125 L 1996.839844 392.828125 L 1982.730469 392.828125 L 1982.730469 367.769531 L 1953.488281 367.769531 L 1953.488281 392.828125 L 1760.839844 392.828125 L 1760.839844 367.769531 L 1731.601562 367.769531 L 1731.601562 392.828125 L 1717.488281 392.828125 Z M 1779.421875 118.289062 L 1934.910156 118.289062 L 1934.910156 222.878906 L 1779.421875 222.878906 Z M 1779.421875 262.789062 L 1934.910156 262.789062 L 1934.910156 367.378906 L 1779.421875 367.378906 Z M 1731.601562 138.660156 L 1760.839844 138.660156 L 1760.839844 163.71875 L 1731.601562 163.71875 Z M 1731.601562 184.480469 L 1760.839844 184.480469 L 1760.839844 209.539062 L 1731.601562 209.539062 Z M 1731.601562 230.300781 L 1760.839844 230.300781 L 1760.839844 255.359375 L 1731.601562 255.359375 Z M 1731.601562 276.128906 L 1760.839844 276.128906 L 1760.839844 301.191406 L 1731.601562 301.191406 Z M 1731.601562 321.949219 L 1760.839844 321.949219 L 1760.839844 347.011719 L 1731.601562 347.011719 Z M 1953.488281 138.660156 L 1982.730469 138.660156 L 1982.730469 163.71875 L 1953.488281 163.71875 Z M 1953.488281 184.480469 L 1982.730469 184.480469 L 1982.730469 209.539062 L 1953.488281 209.539062 Z M 1953.488281 230.300781 L 1982.730469 230.300781 L 1982.730469 255.359375 L 1953.488281 255.359375 Z M 1953.488281 276.128906 L 1982.730469 276.128906 L 1982.730469 301.191406 L 1953.488281 301.191406 Z M 1953.488281 321.949219 L 1982.730469 321.949219 L 1982.730469 347.011719 L 1953.488281 347.011719 L 1953.488281 321.949219 "/>
<path fill-rule="evenodd" fill="rgb(0%, 0%, 0%)" fill-opacity="1" d="M 1169.058594 762.320312 L 1469.058594 762.320312 L 1469.058594 865.890625 L 1366.679688 865.890625 L 1319.058594 820.648438 L 1271.441406 865.890625 L 1169.058594 865.890625 Z M 1446.839844 784.539062 L 1446.839844 843.671875 L 1375.550781 843.671875 L 1341.28125 811.109375 L 1341.28125 784.539062 Z M 1191.28125 784.539062 L 1191.28125 843.671875 L 1262.558594 843.671875 L 1296.839844 811.109375 L 1296.839844 784.539062 L 1191.28125 784.539062 "/>
<path fill-rule="evenodd" fill="rgb(0%, 0%, 0%)" fill-opacity="1" d="M 1182.039062 754.878906 C 1212.570312 737.398438 1243.089844 719.929688 1273.621094 702.449219 C 1290.53125 692.769531 1295.078125 693.429688 1296.679688 708.261719 C 1297.691406 717.539062 1298.691406 723.960938 1295.589844 725.429688 C 1289.789062 728.191406 1289.128906 711.078125 1285.378906 712.699219 C 1281.621094 714.320312 1252.570312 736.410156 1228.820312 754.878906 Z M 1200.589844 777.101562 C 1194.851562 781.671875 1191.28125 784.539062 1191.28125 784.539062 L 1183.839844 777.101562 L 1200.589844 777.101562 "/>
<path fill-rule="evenodd" fill="rgb(0%, 0%, 0%)" fill-opacity="1" d="M 1456.070312 754.878906 C 1425.539062 737.398438 1395.019531 719.929688 1364.488281 702.449219 C 1347.578125 692.769531 1343.03125 693.429688 1341.429688 708.261719 C 1340.429688 717.539062 1339.421875 723.960938 1342.519531 725.429688 C 1348.320312 728.191406 1348.980469 711.078125 1352.730469 712.699219 C 1356.488281 714.320312 1385.539062 736.410156 1409.289062 754.878906 Z M 1437.519531 777.101562 C 1443.261719 781.671875 1446.839844 784.539062 1446.839844 784.539062 L 1454.269531 777.101562 L 1437.519531 777.101562 "/>
<path fill-rule="evenodd" fill="rgb(0%, 0%, 0%)" fill-opacity="1" d="M 242.835938 1169.070312 C 215.308594 1169.070312 189.519531 1176.492188 167.347656 1189.433594 L 295.503906 1255.292969 L 295.527344 1178.601562 C 279.132812 1172.449219 261.378906 1169.070312 242.835938 1169.070312 "/>
<path fill-rule="evenodd" fill="rgb(0%, 0%, 0%)" fill-opacity="1" d="M 112.945312 1244.0625 C 99.183594 1267.902344 92.714844 1293.945312 92.835938 1319.617188 L 213.949219 1241.558594 L 147.546875 1203.195312 C 134.015625 1214.316406 122.21875 1228.003906 112.945312 1244.0625 "/>
<path fill-rule="evenodd" fill="rgb(0%, 0%, 0%)" fill-opacity="1" d="M 112.945312 1394.046875 C 126.707031 1417.882812 146.027344 1436.507812 168.324219 1449.238281 L 161.277344 1305.320312 L 94.851562 1343.648438 C 97.71875 1360.925781 103.671875 1377.988281 112.945312 1394.046875 "/>
<path fill-rule="evenodd" fill="rgb(0%, 0%, 0%)" fill-opacity="1" d="M 242.835938 1469.039062 C 270.359375 1469.039062 296.144531 1461.617188 318.320312 1448.675781 L 190.164062 1382.816406 L 190.140625 1459.507812 C 206.535156 1465.660156 224.289062 1469.039062 242.835938 1469.039062 "/>
<path fill-rule="evenodd" fill="rgb(0%, 0%, 0%)" fill-opacity="1" d="M 372.722656 1394.046875 C 386.484375 1370.210938 392.953125 1344.164062 392.832031 1318.492188 L 271.71875 1396.550781 L 338.121094 1434.914062 C 351.648438 1423.796875 363.449219 1410.105469 372.722656 1394.046875 "/>
<path fill-rule="evenodd" fill="rgb(0%, 0%, 0%)" fill-opacity="1" d="M 372.722656 1244.0625 C 358.960938 1220.226562 339.640625 1201.605469 317.34375 1188.871094 L 324.390625 1332.789062 L 390.816406 1294.464844 C 387.949219 1277.1875 381.996094 1260.125 372.722656 1244.0625 "/>
<path fill-rule="evenodd" fill="rgb(0%, 0%, 0%)" fill-opacity="1" d="M 780.945312 630.941406 C 698.101562 630.941406 630.945312 698.101562 630.945312 780.941406 C 630.945312 863.789062 698.101562 930.941406 780.945312 930.941406 C 863.785156 930.941406 930.945312 863.789062 930.945312 780.941406 C 930.945312 698.101562 863.785156 630.941406 780.945312 630.941406 Z M 780.945312 732.089844 C 753.960938 732.089844 732.085938 753.960938 732.085938 780.941406 C 732.085938 807.929688 753.960938 829.800781 780.945312 829.800781 C 807.929688 829.800781 829.800781 807.929688 829.800781 780.941406 C 829.800781 753.960938 807.929688 732.089844 780.945312 732.089844 "/>
<path fill-rule="evenodd" fill="rgb(0%, 0%, 0%)" fill-opacity="1" d="M 780.945312 639.980469 C 703.09375 639.980469 639.984375 703.089844 639.984375 780.941406 C 639.984375 858.789062 703.09375 921.910156 780.945312 921.910156 C 858.792969 921.910156 921.90625 858.789062 921.90625 780.941406 C 921.90625 703.089844 858.792969 639.980469 780.945312 639.980469 Z M 780.945312 732.089844 C 753.960938 732.089844 732.085938 753.960938 732.085938 780.941406 C 732.085938 807.929688 753.960938 829.800781 780.945312 829.800781 C 807.929688 829.800781 829.800781 807.929688 829.800781 780.941406 C 829.800781 753.960938 807.929688 732.089844 780.945312 732.089844 "/>
<path fill-rule="evenodd" fill="rgb(100%, 100%, 100%)" fill-opacity="1" d="M 725.382812 910.53125 C 742.433594 917.851562 761.214844 921.910156 780.945312 921.910156 C 800.675781 921.910156 819.453125 917.851562 836.503906 910.53125 L 822.464844 877.78125 L 800.203125 825.859375 C 794.292969 828.398438 787.78125 829.800781 780.945312 829.800781 C 774.105469 829.800781 767.597656 828.398438 761.6875 825.859375 L 739.425781 877.78125 L 725.382812 910.53125 "/>
<path fill-rule="evenodd" fill="rgb(100%, 100%, 100%)" fill-opacity="1" d="M 695.925781 668.511719 C 676.972656 682.859375 661.761719 701.898438 652.011719 723.898438 L 689.472656 740.46875 L 736.253906 761.171875 C 739.632812 753.550781 744.90625 746.949219 751.476562 741.96875 L 720.617188 701.160156 L 695.925781 668.511719 "/>
<path fill-rule="evenodd" fill="rgb(100%, 100%, 100%)" fill-opacity="1" d="M 919.347656 754.128906 C 914.726562 730.140625 904.027344 708.320312 888.917969 690.328125 L 857.5625 716.640625 L 818.367188 749.539062 C 823.605469 755.769531 827.3125 763.339844 828.914062 771.648438 L 879.144531 761.921875 L 919.347656 754.128906 "/>
<path fill-rule="evenodd" fill="rgb(0%, 0%, 0%)" fill-opacity="1" d="M 780.945312 730.351562 C 753 730.351562 730.347656 753 730.347656 780.941406 C 730.347656 808.890625 753 831.539062 780.945312 831.539062 C 808.886719 831.539062 831.539062 808.890625 831.539062 780.941406 C 831.539062 753 808.886719 730.351562 780.945312 730.351562 Z M 780.945312 748.230469 C 762.871094 748.230469 748.226562 762.871094 748.226562 780.941406 C 748.226562 799.019531 762.871094 813.660156 780.945312 813.660156 C 799.015625 813.660156 813.664062 799.019531 813.664062 780.941406 C 813.664062 762.871094 799.015625 748.230469 780.945312 748.230469 "/>
<path fill-rule="evenodd" fill="rgb(0%, 0%, 0%)" fill-opacity="1" d="M 1707.171875 809.078125 L 1745.019531 775.101562 L 1866.839844 665.761719 L 1906.378906 747.511719 L 1945.910156 829.261719 L 1825.730469 849.808594 L 1785.421875 856.699219 L 1784.550781 856.851562 L 1734.410156 865.429688 L 1707.171875 809.078125 "/>
<path fill="none" stroke-width="5.0003" stroke-linecap="butt" stroke-linejoin="miter" stroke="rgb(0%, 0%, 0%)" stroke-opacity="1" stroke-miterlimit="2.61313" d="M 17071.71875 12919.21875 L 17450.195312 13258.984375 L 18668.398438 14352.382812 L 19063.789062 13534.882812 L 19459.101562 12717.382812 L 18257.304688 12511.914062 L 17854.21875 12443.007812 L 17845.507812 12441.484375 L 17344.101562 12355.703125 Z M 17071.71875 12919.21875 " transform="matrix(0.1, 0, 0, -0.1, 0, 2101)"/>
<path fill-rule="evenodd" fill="rgb(0%, 0%, 0%)" fill-opacity="1" d="M 1918.390625 732.339844 L 1977.460938 703.769531 C 1981.628906 701.75 1986.699219 703.519531 1988.710938 707.691406 C 1990.730469 711.871094 1988.96875 716.929688 1984.789062 718.949219 L 1925.730469 747.511719 L 1922.058594 739.921875 L 1918.390625 732.339844 "/>
<path fill="none" stroke-width="5.0003" stroke-linecap="butt" stroke-linejoin="miter" stroke="rgb(0%, 0%, 0%)" stroke-opacity="1" stroke-miterlimit="2.61313" d="M 19183.90625 13686.601562 L 19774.609375 13972.304688 C 19816.289062 13992.5 19866.992188 13974.804688 19887.109375 13933.085938 C 19907.304688 13891.289062 19889.6875 13840.703125 19847.890625 13820.507812 L 19257.304688 13534.882812 L 19220.585938 13610.78125 Z M 19183.90625 13686.601562 " transform="matrix(0.1, 0, 0, -0.1, 0, 2101)"/>
<path fill-rule="evenodd" fill="rgb(0%, 0%, 0%)" fill-opacity="1" d="M 1935.660156 768.050781 L 1997.160156 756.308594 C 2001.710938 755.441406 2006.148438 758.460938 2007.019531 763.011719 C 2007.890625 767.570312 2004.871094 772 2000.320312 772.871094 L 1943.261719 783.761719 L 1935.660156 768.050781 "/>
<path fill="none" stroke-width="5.0003" stroke-linecap="butt" stroke-linejoin="miter" stroke="rgb(0%, 0%, 0%)" stroke-opacity="1" stroke-miterlimit="2.61313" d="M 19356.601562 13329.492188 L 19971.601562 13446.914062 C 20017.109375 13455.585938 20061.484375 13425.390625 20070.195312 13379.882812 C 20078.90625 13334.296875 20048.710938 13290 20003.203125 13281.289062 L 19432.617188 13172.382812 Z M 19356.601562 13329.492188 " transform="matrix(0.1, 0, 0, -0.1, 0, 2101)"/>
<path fill-rule="evenodd" fill="rgb(0%, 0%, 0%)" fill-opacity="1" d="M 1900.859375 696.089844 L 1944.828125 658.121094 C 1948.339844 655.089844 1953.691406 655.488281 1956.71875 658.988281 C 1959.75 662.5 1959.359375 667.851562 1955.851562 670.878906 L 1908.460938 711.800781 L 1900.859375 696.089844 "/>
<path fill="none" stroke-width="5.0003" stroke-linecap="butt" stroke-linejoin="miter" stroke="rgb(0%, 0%, 0%)" stroke-opacity="1" stroke-miterlimit="2.61313" d="M 19008.59375 14049.101562 L 19448.28125 14428.789062 C 19483.398438 14459.101562 19536.914062 14455.117188 19567.1875 14420.117188 C 19597.5 14385 19593.59375 14331.484375 19558.515625 14301.210938 L 19084.609375 13891.992188 Z M 19008.59375 14049.101562 " transform="matrix(0.1, 0, 0, -0.1, 0, 2101)"/>
<path fill-rule="evenodd" fill="rgb(0%, 0%, 0%)" fill-opacity="1" d="M 1825.261719 856.070312 L 1825.261719 897.160156 C 1825.261719 901.910156 1821.371094 905.808594 1816.609375 905.808594 L 1787.578125 905.808594 C 1782.828125 905.808594 1778.941406 901.910156 1778.941406 897.160156 L 1778.941406 863.988281 L 1784.550781 863.03125 L 1785.421875 862.878906 L 1825.261719 856.070312 "/>
<path fill-rule="evenodd" fill="rgb(0%, 0%, 0%)" fill-opacity="1" d="M 1950.929688 1261.503906 L 1980.441406 1244.464844 C 1986.101562 1241.191406 1992.589844 1241.191406 1998.261719 1244.464844 C 2003.921875 1247.734375 2007.171875 1253.355469 2007.171875 1259.894531 L 2007.171875 1378.214844 C 2007.171875 1384.757812 2003.921875 1390.375 1998.261719 1393.648438 C 1992.589844 1396.917969 1986.101562 1396.917969 1980.441406 1393.648438 L 1950.929688 1376.609375 L 1950.929688 1261.503906 "/>
<path fill-rule="evenodd" fill="rgb(0%, 0%, 0%)" fill-opacity="1" d="M 1737.101562 1237.082031 L 1908.179688 1237.082031 C 1924.640625 1237.082031 1938.109375 1250.554688 1938.109375 1267.019531 L 1938.109375 1371.089844 C 1938.109375 1387.554688 1924.640625 1401.027344 1908.179688 1401.027344 L 1737.101562 1401.027344 C 1720.640625 1401.027344 1707.171875 1387.554688 1707.171875 1371.089844 L 1707.171875 1267.019531 C 1707.171875 1250.554688 1720.640625 1237.082031 1737.101562 1237.082031 Z M 1895.421875 1258.683594 C 1887.550781 1258.683594 1881.171875 1265.0625 1881.171875 1272.933594 C 1881.171875 1280.804688 1887.550781 1287.183594 1895.421875 1287.183594 C 1903.289062 1287.183594 1909.671875 1280.804688 1909.671875 1272.933594 C 1909.671875 1265.0625 1903.289062 1258.683594 1895.421875 1258.683594 "/>
<path fill-rule="evenodd" fill="rgb(0%, 0%, 0%)" fill-opacity="1" d="M 1203.5 1824.066406 L 1452.519531 1824.066406 L 1452.519531 1951.03125 C 1452.519531 1960.878906 1444.460938 1968.9375 1434.609375 1968.9375 L 1203.5 1968.9375 C 1193.648438 1968.9375 1185.589844 1960.878906 1185.589844 1951.03125 L 1185.589844 1824.066406 Z M 1358.640625 1886.34375 L 1324.921875 1866.871094 L 1291.199219 1847.402344 C 1287.460938 1845.246094 1283.199219 1845.246094 1279.46875 1847.402344 C 1275.738281 1849.554688 1273.601562 1853.253906 1273.601562 1857.558594 L 1273.601562 1935.445312 C 1273.601562 1939.75 1275.738281 1943.449219 1279.46875 1945.601562 C 1283.199219 1947.753906 1287.460938 1947.753906 1291.199219 1945.601562 L 1324.921875 1926.128906 L 1358.640625 1906.660156 C 1362.371094 1904.503906 1364.511719 1900.808594 1364.511719 1896.503906 C 1364.511719 1892.195312 1362.378906 1888.496094 1358.640625 1886.34375 "/>
<path fill-rule="evenodd" fill="rgb(0%, 0%, 0%)" fill-opacity="1" d="M 1185.589844 1783.972656 L 1221.691406 1783.972656 L 1209.109375 1815.597656 L 1185.589844 1815.597656 L 1185.589844 1783.972656 "/>
<path fill-rule="evenodd" fill="rgb(0%, 0%, 0%)" fill-opacity="1" d="M 1221.691406 1815.597656 L 1234.269531 1783.972656 L 1270.371094 1783.972656 L 1257.789062 1815.597656 L 1221.691406 1815.597656 "/>
<path fill-rule="evenodd" fill="rgb(0%, 0%, 0%)" fill-opacity="1" d="M 1270.371094 1815.597656 L 1282.960938 1783.972656 L 1319.050781 1783.972656 L 1306.46875 1815.597656 L 1270.371094 1815.597656 "/>
<path fill-rule="evenodd" fill="rgb(0%, 0%, 0%)" fill-opacity="1" d="M 1319.050781 1815.597656 L 1331.640625 1783.972656 L 1367.738281 1783.972656 L 1355.148438 1815.597656 L 1319.050781 1815.597656 "/>
<path fill-rule="evenodd" fill="rgb(0%, 0%, 0%)" fill-opacity="1" d="M 1367.738281 1815.597656 L 1380.320312 1783.972656 L 1416.421875 1783.972656 L 1403.839844 1815.597656 L 1367.738281 1815.597656 "/>
<path fill-rule="evenodd" fill="rgb(0%, 0%, 0%)" fill-opacity="1" d="M 1416.421875 1815.597656 L 1429 1783.972656 L 1452.519531 1783.972656 L 1452.519531 1815.597656 L 1416.421875 1815.597656 "/>
<path fill-rule="evenodd" fill="rgb(0%, 0%, 0%)" fill-opacity="1" d="M 1185.589844 1777.023438 L 1221.691406 1777.023438 L 1209.109375 1745.398438 L 1185.589844 1745.398438 L 1185.589844 1777.023438 "/>
<path fill-rule="evenodd" fill="rgb(0%, 0%, 0%)" fill-opacity="1" d="M 1221.691406 1745.398438 L 1234.269531 1777.023438 L 1270.371094 1777.023438 L 1257.789062 1745.398438 L 1221.691406 1745.398438 "/>
<path fill-rule="evenodd" fill="rgb(0%, 0%, 0%)" fill-opacity="1" d="M 1270.371094 1745.398438 L 1282.960938 1777.023438 L 1319.050781 1777.023438 L 1306.46875 1745.398438 L 1270.371094 1745.398438 "/>
<path fill-rule="evenodd" fill="rgb(0%, 0%, 0%)" fill-opacity="1" d="M 1319.050781 1745.398438 L 1331.640625 1777.023438 L 1367.738281 1777.023438 L 1355.148438 1745.398438 L 1319.050781 1745.398438 "/>
<path fill-rule="evenodd" fill="rgb(0%, 0%, 0%)" fill-opacity="1" d="M 1367.738281 1745.398438 L 1380.320312 1777.023438 L 1416.421875 1777.023438 L 1403.839844 1745.398438 L 1367.738281 1745.398438 "/>
<path fill-rule="evenodd" fill="rgb(0%, 0%, 0%)" fill-opacity="1" d="M 1416.421875 1745.398438 L 1429 1777.023438 L 1452.519531 1777.023438 L 1452.519531 1745.398438 L 1416.421875 1745.398438 "/>
<path fill-rule="evenodd" fill="rgb(0%, 0%, 0%)" fill-opacity="1" d="M 95.820312 1707.164062 L 129.824219 1707.164062 L 129.824219 1741.171875 L 95.820312 1741.171875 L 95.820312 1707.164062 "/>
<path fill-rule="evenodd" fill="rgb(0%, 0%, 0%)" fill-opacity="1" d="M 95.820312 1760.363281 L 129.824219 1760.363281 L 129.824219 1794.371094 L 95.820312 1794.371094 L 95.820312 1760.363281 "/>
<path fill-rule="evenodd" fill="rgb(0%, 0%, 0%)" fill-opacity="1" d="M 95.820312 1813.5625 L 129.824219 1813.5625 L 129.824219 1847.570312 L 95.820312 1847.570312 L 95.820312 1813.5625 "/>
<path fill-rule="evenodd" fill="rgb(0%, 0%, 0%)" fill-opacity="1" d="M 95.820312 1866.761719 L 129.824219 1866.761719 L 129.824219 1900.769531 L 95.820312 1900.769531 L 95.820312 1866.761719 "/>
<path fill-rule="evenodd" fill="rgb(0%, 0%, 0%)" fill-opacity="1" d="M 95.820312 1919.960938 L 129.824219 1919.960938 L 129.824219 1953.96875 L 95.820312 1953.96875 L 95.820312 1919.960938 "/>
<path fill-rule="evenodd" fill="rgb(0%, 0%, 0%)" fill-opacity="1" d="M 95.820312 1973.160156 L 129.824219 1973.160156 L 129.824219 2007.164062 L 95.820312 2007.164062 L 95.820312 1973.160156 "/>
<path fill-rule="evenodd" fill="rgb(0%, 0%, 0%)" fill-opacity="1" d="M 355.84375 1707.164062 L 389.847656 1707.164062 L 389.847656 1741.171875 L 355.84375 1741.171875 L 355.84375 1707.164062 "/>
<path fill-rule="evenodd" fill="rgb(0%, 0%, 0%)" fill-opacity="1" d="M 355.84375 1760.363281 L 389.847656 1760.363281 L 389.847656 1794.371094 L 355.84375 1794.371094 L 355.84375 1760.363281 "/>
<path fill-rule="evenodd" fill="rgb(0%, 0%, 0%)" fill-opacity="1" d="M 355.84375 1813.5625 L 389.847656 1813.5625 L 389.847656 1847.570312 L 355.84375 1847.570312 L 355.84375 1813.5625 "/>
<path fill-rule="evenodd" fill="rgb(0%, 0%, 0%)" fill-opacity="1" d="M 355.84375 1866.761719 L 389.847656 1866.761719 L 389.847656 1900.769531 L 355.84375 1900.769531 L 355.84375 1866.761719 "/>
<path fill-rule="evenodd" fill="rgb(0%, 0%, 0%)" fill-opacity="1" d="M 355.84375 1919.960938 L 389.847656 1919.960938 L 389.847656 1953.96875 L 355.84375 1953.96875 L 355.84375 1919.960938 "/>
<path fill-rule="evenodd" fill="rgb(0%, 0%, 0%)" fill-opacity="1" d="M 355.84375 1973.160156 L 389.847656 1973.160156 L 389.847656 2007.164062 L 355.84375 2007.164062 L 355.84375 1973.160156 "/>
<path fill-rule="evenodd" fill="rgb(0%, 0%, 0%)" fill-opacity="1" d="M 155.78125 1707.164062 L 329.886719 1707.164062 L 329.886719 1837.015625 L 155.78125 1837.015625 L 155.78125 1707.164062 "/>
<path fill-rule="evenodd" fill="rgb(0%, 0%, 0%)" fill-opacity="1" d="M 155.78125 1877.316406 L 329.886719 1877.316406 L 329.886719 2007.164062 L 155.78125 2007.164062 L 155.78125 1877.316406 "/>
<path fill-rule="evenodd" fill="rgb(0%, 0%, 0%)" fill-opacity="1" d="M 679.332031 1745.875 L 882.558594 1745.875 C 909.171875 1745.875 930.945312 1767.648438 930.945312 1794.261719 L 930.945312 1920.070312 C 930.945312 1946.683594 909.171875 1968.457031 882.558594 1968.457031 L 679.332031 1968.457031 C 652.71875 1968.457031 630.945312 1946.683594 630.945312 1920.070312 L 630.945312 1794.261719 C 630.945312 1767.648438 652.71875 1745.875 679.332031 1745.875 Z M 840.28125 1844.011719 L 796.605469 1818.792969 L 752.925781 1793.574219 C 748.09375 1790.785156 742.566406 1790.785156 737.734375 1793.574219 C 732.902344 1796.363281 730.140625 1801.152344 730.140625 1806.730469 L 730.140625 1907.601562 C 730.140625 1913.179688 732.902344 1917.96875 737.734375 1920.757812 C 742.566406 1923.546875 748.09375 1923.546875 752.925781 1920.757812 L 796.605469 1895.539062 L 840.28125 1870.320312 C 845.113281 1867.53125 847.878906 1862.746094 847.878906 1857.164062 C 847.878906 1851.585938 845.113281 1846.800781 840.28125 1844.011719 "/>
<path fill-rule="evenodd" fill="rgb(0%, 0%, 0%)" fill-opacity="1" d="M 1857.171875 1707.835938 C 1774.691406 1707.835938 1707.839844 1774.691406 1707.839844 1857.164062 C 1707.839844 1939.640625 1774.691406 2006.496094 1857.171875 2006.496094 C 1939.640625 2006.496094 2006.5 1939.640625 2006.5 1857.164062 C 2006.5 1774.691406 1939.640625 1707.835938 1857.171875 1707.835938 Z M 1857.171875 1835.996094 C 1845.46875 1835.996094 1836 1845.472656 1836 1857.164062 C 1836 1868.859375 1845.46875 1878.335938 1857.171875 1878.335938 C 1868.859375 1878.335938 1878.339844 1868.859375 1878.339844 1857.164062 C 1878.339844 1845.472656 1868.859375 1835.996094 1857.171875 1835.996094 Z M 1857.171875 1730.472656 C 1839.878906 1730.472656 1825.871094 1744.488281 1825.871094 1761.773438 C 1825.871094 1779.0625 1839.878906 1793.074219 1857.171875 1793.074219 C 1874.449219 1793.074219 1888.46875 1779.0625 1888.46875 1761.773438 C 1888.46875 1744.488281 1874.449219 1730.472656 1857.171875 1730.472656 Z M 1747.449219 1793.820312 C 1738.800781 1808.789062 1743.929688 1827.933594 1758.898438 1836.578125 C 1773.878906 1845.222656 1793.019531 1840.09375 1801.660156 1825.121094 C 1810.308594 1810.148438 1805.179688 1791.007812 1790.210938 1782.363281 C 1775.230469 1773.71875 1756.089844 1778.847656 1747.449219 1793.820312 Z M 1747.449219 1920.511719 C 1756.089844 1935.484375 1775.230469 1940.613281 1790.210938 1931.96875 C 1805.179688 1923.324219 1810.308594 1904.183594 1801.660156 1889.210938 C 1793.019531 1874.238281 1773.878906 1869.109375 1758.898438 1877.753906 C 1743.929688 1886.398438 1738.800781 1905.539062 1747.449219 1920.511719 Z M 1857.171875 1983.859375 C 1874.449219 1983.859375 1888.46875 1969.84375 1888.46875 1952.558594 C 1888.46875 1935.269531 1874.449219 1921.257812 1857.171875 1921.257812 C 1839.878906 1921.257812 1825.871094 1935.269531 1825.871094 1952.558594 C 1825.871094 1969.84375 1839.878906 1983.859375 1857.171875 1983.859375 Z M 1966.878906 1920.511719 C 1975.53125 1905.539062 1970.398438 1886.398438 1955.429688 1877.753906 C 1940.460938 1869.109375 1921.308594 1874.238281 1912.671875 1889.210938 C 1904.03125 1904.183594 1909.160156 1923.324219 1924.128906 1931.96875 C 1939.101562 1940.613281 1958.238281 1935.484375 1966.878906 1920.511719 Z M 1966.878906 1793.820312 C 1958.238281 1778.847656 1939.101562 1773.71875 1924.128906 1782.363281 C 1909.160156 1791.007812 1904.03125 1810.148438 1912.671875 1825.121094 C 1921.308594 1840.09375 1940.460938 1845.222656 1955.429688 1836.578125 C 1970.398438 1827.933594 1975.53125 1808.789062 1966.878906 1793.820312 "/>
<path fill-rule="evenodd" fill="rgb(0%, 0%, 0%)" fill-opacity="1" d="M 660.109375 1245.394531 L 901.777344 1245.394531 C 917.820312 1245.394531 930.945312 1258.519531 930.945312 1274.5625 L 930.945312 1432.894531 C 930.945312 1448.9375 917.820312 1462.0625 901.777344 1462.0625 L 660.109375 1462.0625 C 644.070312 1462.0625 630.945312 1448.9375 630.945312 1432.894531 L 630.945312 1274.5625 C 630.945312 1258.519531 644.070312 1245.394531 660.109375 1245.394531 Z M 899.171875 1283.9375 C 889.105469 1283.9375 880.945312 1292.097656 880.945312 1302.167969 C 880.945312 1312.234375 889.105469 1320.394531 899.171875 1320.394531 C 909.242188 1320.394531 917.402344 1312.234375 917.402344 1302.167969 C 917.402344 1292.097656 909.242188 1283.9375 899.171875 1283.9375 Z M 899.171875 1328.730469 C 889.105469 1328.730469 880.945312 1336.890625 880.945312 1346.957031 C 880.945312 1357.023438 889.105469 1365.183594 899.171875 1365.183594 C 909.242188 1365.183594 917.402344 1357.023438 917.402344 1346.957031 C 917.402344 1336.890625 909.242188 1328.730469 899.171875 1328.730469 Z M 899.171875 1383.9375 C 887.378906 1383.9375 877.820312 1393.496094 877.820312 1405.289062 C 877.820312 1417.085938 887.378906 1426.644531 899.171875 1426.644531 C 910.96875 1426.644531 920.527344 1417.085938 920.527344 1405.289062 C 920.527344 1393.496094 910.96875 1383.9375 899.171875 1383.9375 Z M 671.570312 1271.433594 L 856.988281 1271.433594 C 862.714844 1271.433594 867.402344 1276.121094 867.402344 1281.851562 L 867.402344 1425.601562 C 867.402344 1431.332031 862.714844 1436.019531 856.988281 1436.019531 L 671.570312 1436.019531 C 665.839844 1436.019531 661.152344 1431.332031 661.152344 1425.601562 L 661.152344 1281.851562 C 661.152344 1276.121094 665.839844 1271.433594 671.570312 1271.433594 "/>
<path fill-rule="evenodd" fill="rgb(0%, 0%, 0%)" fill-opacity="1" d="M 890.5625 1186.300781 C 887.75 1178.3125 878.992188 1174.113281 871.003906 1176.921875 C 865.183594 1178.96875 861.375 1184.167969 860.820312 1189.929688 L 722.410156 1238.621094 L 761.273438 1238.621094 L 865.101562 1202.09375 C 869.144531 1206.238281 875.363281 1207.90625 881.183594 1205.863281 C 889.171875 1203.050781 893.371094 1194.292969 890.5625 1186.300781 "/>
</svg>
